# xmcd
#
# Track frame offsets:
#	150
#	14379
#	28009
#	41821
#	52918
#	63609
#	74466
#	87582
#	100197
#	113149
#	124106
#	137562
#	150955
#	161211
#	170400
#	184009
#	197527
#	211711
#	222898
#	240221
#	253302
#	265583
#	284036
#	300216
#	316321
#	335561
#
# Disc length: 4635 seconds
#
# Revision: 0
# Processed by: cddbd v1.5.2PL0 Copyright (c) Steve Scherf et al.
# Submitted via: EasyCDDAExtractor 10.5.1.1
#
DISCID=7012191a
DTITLE=Mikko Järvinen - Laula minulle
DYEAR=2007
DGENRE=Pop
TTITLE0=Iltapilviä
TTITLE1=Muuttolintujen lähtö
TTITLE2=Lumihiutaleita
TTITLE3=Jääkukkia
TTITLE4=Tanssilava
TTITLE5=Miljoonakaupunki
TTITLE6=Sade
TTITLE7=Kun joinain päivänä laulan pihallasi
TTITLE8=Parolan humppamarssi
TTITLE9=Imatran vedenneito
TTITLE10=Miksi
TTITLE11=Kadun lapsi
TTITLE12=Lentävä hollantilainen
TTITLE13=Äiti ja poika
TTITLE14=Luana
TTITLE15=Leiritulen loimutessa
TTITLE16=Cornelita
TTITLE17=Ensimmäinen aamu
TTITLE18=Alla tähden lennon
TTITLE19=Rakastunut nainen
TTITLE20=Laula minulle
TTITLE21=Öiset kitarat
TTITLE22=Sataman valot
TTITLE23=Rakkauden satu
TTITLE24=Kilpisjärven laulu
TTITLE25=Puolangan vaarat
EXTD=
EXTT0=
EXTT1=
EXTT2=
EXTT3=
EXTT4=
EXTT5=
EXTT6=
EXTT7=
EXTT8=
EXTT9=
EXTT10=
EXTT11=
EXTT12=
EXTT13=
EXTT14=
EXTT15=
EXTT16=
EXTT17=
EXTT18=
EXTT19=
EXTT20=
EXTT21=
EXTT22=
EXTT23=
EXTT24=
EXTT25=
PLAYORDER=
